<?xml version="1.0" encoding="UTF-8"?>
<svg version="1.1" xmlns="http://www.w3.org/2000/svg" width="512" height="512">
<path d="M0 0 C0.75638711 -0.00350607 1.51277423 -0.00701215 2.29208216 -0.01062447 C4.83515579 -0.01995323 7.37800116 -0.01501137 9.9210844 -0.01015663 C11.759361 -0.01389215 13.59763601 -0.01849327 15.4359085 -0.02388728 C20.49428691 -0.03614488 25.55259933 -0.03585356 30.61098921 -0.03349853 C36.0637401 -0.03309106 41.51646964 -0.04412281 46.96921062 -0.05361366 C57.6547246 -0.0702397 68.34021651 -0.07572393 79.02574233 -0.07683842 C87.70976914 -0.07778812 96.39378865 -0.08189452 105.07781315 -0.08823967 C129.68828817 -0.10585635 154.29874675 -0.11509 178.909228 -0.11357872 C179.90431272 -0.11351889 179.90431272 -0.11351889 180.91950017 -0.11345784 C182.26103627 -0.11337697 183.60257238 -0.11329337 184.94410849 -0.11320706 C205.8164818 -0.11198153 226.68879012 -0.12699458 247.56114483 -0.15435219 C271.00866959 -0.1850724 294.45615872 -0.20225938 317.90370578 -0.20042574 C330.31962197 -0.19976121 342.7354649 -0.20528116 355.15136433 -0.22678185 C365.72195607 -0.24496941 376.29244132 -0.24936091 386.86304191 -0.235763 C392.25742712 -0.22922116 397.65160787 -0.22916007 403.04597378 -0.2464695 C407.98386355 -0.26215139 412.92138593 -0.25938656 417.85926648 -0.24190123 C419.6459248 -0.23882056 421.43261021 -0.24250372 423.21923659 -0.25362138 C441.17507946 -0.35795818 441.17507946 -0.35795818 448.68394756 6.22211266 C449.22277569 6.87308922 449.76160381 7.52406578 450.31676006 8.19476891 C450.87105694 8.84316734 451.42535381 9.49156578 451.99644756 10.15961266 C454.75972999 14.17010634 455.69154915 17.72905834 455.69902897 22.56660748 C455.70547786 23.62361459 455.71192675 24.68062171 455.71857107 25.76965934 C455.71547386 26.92470456 455.71237666 28.07974978 455.7091856 29.26979637 C455.71371671 30.50165678 455.71824783 31.73351719 455.72291625 33.00270671 C455.7333894 36.41931009 455.7348856 39.83570303 455.73252749 43.25230753 C455.73211937 46.93817569 455.74315806 50.62401243 455.75264263 54.30986595 C455.76925464 61.53024218 455.77475227 68.75058575 455.77586739 75.97097949 C455.77681778 81.84036206 455.78092764 87.70973385 455.78726864 93.57911301 C455.80488172 110.22098601 455.81410742 126.86283321 455.81260769 143.5047156 C455.81252778 144.40185946 455.81244787 145.29900332 455.81236553 146.22333336 C455.81228377 147.12157303 455.81220201 148.0198127 455.81211777 148.94527175 C455.81130489 163.5022114 455.83044298 178.05904758 455.85864227 192.6159573 C455.88737061 207.56396564 455.90118258 222.51192351 455.89945471 237.45996016 C455.89879079 245.85171324 455.90428421 254.24335785 455.92581081 262.63508606 C455.94402198 269.78013914 455.94837054 276.92503458 455.93479197 284.07010082 C455.92826188 287.7146916 455.9281462 291.35897994 455.94549847 295.00354195 C455.96412807 298.95709816 455.95167555 302.9102128 455.93623638 306.86379051 C455.94652351 308.01214357 455.95681063 309.16049662 455.96740949 310.34364825 C455.9003025 318.11280835 454.7393433 323.49422164 449.47691631 329.49945641 C448.82593975 330.03828453 448.17496319 330.57711266 447.50426006 331.13226891 C446.85586163 331.68656578 446.20746319 332.24086266 445.53941631 332.81195641 C440.81628104 336.06625818 436.502422 336.54752843 430.88352013 336.51453781 C430.12713301 336.51804389 429.3707459 336.52154996 428.59143797 336.52516228 C426.04836434 336.53449104 423.50551897 336.52954918 420.96243572 336.52469444 C419.12415912 336.52842996 417.28588411 336.53303108 415.44761163 336.53842509 C410.38923322 336.55068269 405.3309208 336.55039137 400.27253091 336.54803634 C394.81978002 336.54762887 389.36705049 336.55866062 383.9143095 336.56815147 C373.22879553 336.58477751 362.54330362 336.59026174 351.8577778 336.59137623 C343.17375099 336.59232593 334.48973148 336.59643233 325.80570698 336.60277748 C301.19523196 336.62039416 276.58477338 336.62962781 251.97429212 336.62811653 C251.31090231 336.62807664 250.6475125 336.62803675 249.96401996 336.62799565 C248.62248385 336.62791478 247.28094774 336.62783118 245.93941163 336.62774487 C225.06703833 336.62651935 204.19473001 336.64153239 183.3223753 336.66889 C159.87485053 336.69961021 136.4273614 336.71679719 112.97981435 336.71496356 C100.56389815 336.71429902 88.14805523 336.71981897 75.7321558 336.74131966 C65.16156406 336.75950722 54.59107881 336.76389872 44.02047821 336.75030081 C38.62609301 336.74375897 33.23191226 336.74369788 27.83754635 336.76100731 C22.89965657 336.7766892 17.96213419 336.77392437 13.02425364 336.75643905 C11.23759533 336.75335838 9.45090992 336.75704153 7.66428354 336.7681592 C-10.29155933 336.87249599 -10.29155933 336.87249599 -17.80042744 330.29242516 C-18.33925556 329.64144859 -18.87808369 328.99047203 -19.43323994 328.31976891 C-19.98753681 327.67137047 -20.54183369 327.02297203 -21.11292744 326.35492516 C-23.87620987 322.34443147 -24.80802902 318.78547947 -24.81550884 313.94793034 C-24.82195773 312.89092322 -24.82840663 311.83391611 -24.83505094 310.74487847 C-24.83195374 309.58983325 -24.82885653 308.43478803 -24.82566547 307.24474144 C-24.83019659 306.01288103 -24.8347277 304.78102062 -24.83939612 303.5118311 C-24.84986927 300.09522772 -24.85136548 296.67883478 -24.84900737 293.26223028 C-24.84859924 289.57636212 -24.85963793 285.89052538 -24.86912251 282.20467186 C-24.88573452 274.98429563 -24.89123214 267.76395206 -24.89234726 260.54355832 C-24.89329766 254.67417576 -24.89740752 248.80480396 -24.90374851 242.9354248 C-24.92136159 226.2935518 -24.9305873 209.6517046 -24.92908756 193.00982221 C-24.92900765 192.11267835 -24.92892774 191.21553449 -24.92884541 190.29120445 C-24.92876364 189.39296478 -24.92868188 188.49472511 -24.92859764 187.56926606 C-24.92778476 173.01232641 -24.94692286 158.45549023 -24.97512214 143.89858051 C-25.00385048 128.95057217 -25.01766246 114.0026143 -25.01593459 99.05457765 C-25.01527066 90.66282457 -25.02076409 82.27117996 -25.04229069 73.87945175 C-25.06050186 66.73439867 -25.06485041 59.58950323 -25.05127184 52.44443699 C-25.04474175 48.79984621 -25.04462607 45.15555787 -25.06197834 41.51099586 C-25.08060794 37.55743965 -25.06815543 33.60432502 -25.05271626 29.6507473 C-25.06300338 28.50239424 -25.07329051 27.35404119 -25.08388937 26.17088956 C-25.01678237 18.40172946 -23.85582317 13.02031617 -18.59339619 7.01508141 C-17.94241962 6.47625328 -17.29144306 5.93742516 -16.62073994 5.38226891 C-15.9723415 4.82797203 -15.32394306 4.27367516 -14.65589619 3.70258141 C-9.93276091 0.44827963 -5.61890187 -0.03299062 0 0 Z M107.44176006 16.25726891 C110.41653329 19.23204213 112.99283562 21.75652816 116.19176006 24.31976891 C124.02157783 31.11350492 129.81395631 40.04817199 134.44176006 49.25726891 C135.10176006 49.25726891 135.76176006 49.25726891 136.44176006 49.25726891 C137.4864497 47.56688188 138.4499123 45.82621346 139.37926006 44.06976891 C145.11298762 33.98508384 152.34241137 25.16293768 161.85972881 18.42914391 C162.38179913 18.04242516 162.90386944 17.65570641 163.44176006 17.25726891 C163.44176006 16.92726891 163.44176006 16.59726891 163.44176006 16.25726891 C144.96176006 16.25726891 126.48176006 16.25726891 107.44176006 16.25726891 Z M267.44176006 16.25726891 C270.41653329 19.23204213 272.99283562 21.75652816 276.19176006 24.31976891 C284.02157783 31.11350492 289.81395631 40.04817199 294.44176006 49.25726891 C295.10176006 49.25726891 295.76176006 49.25726891 296.44176006 49.25726891 C297.4864497 47.56688188 298.4499123 45.82621346 299.37926006 44.06976891 C305.11298762 33.98508384 312.34241137 25.16293768 321.85972881 18.42914391 C322.38179913 18.04242516 322.90386944 17.65570641 323.44176006 17.25726891 C323.44176006 16.92726891 323.44176006 16.59726891 323.44176006 16.25726891 C304.96176006 16.25726891 286.48176006 16.25726891 267.44176006 16.25726891 Z M64.44176006 17.25726891 C66.64078418 31.91742965 72.41218028 45.20697968 82.44176006 56.25726891 C83.34668194 57.28207359 83.34668194 57.28207359 84.26988506 58.32758141 C91.7954275 66.37318166 101.93091659 72.8483467 112.44176006 76.25726891 C116.45621996 74.91911561 117.79942448 72.49412999 120.44176006 69.25726891 C121.43176006 68.59726891 122.42176006 67.93726891 123.44176006 67.25726891 C118.15905686 49.3547747 106.35826444 34.47189297 89.97301006 25.31976891 C81.69784158 21.10377012 73.63237146 18.74419371 64.44176006 17.25726891 Z M325.09019756 37.48383141 C318.93967579 43.92464329 314.21419276 50.16150302 310.37926006 58.19476891 C310.06754864 58.84606773 309.75583721 59.49736656 309.43467999 60.16840172 C307.6035109 64.09137933 307.6035109 64.09137933 308.44176006 68.25726891 C310.42436432 69.94459168 312.42499427 71.61092948 314.44176006 73.25726891 C315.10176006 74.24726891 315.76176006 75.23726891 316.44176006 76.25726891 C334.34425427 70.9745657 349.227136 59.17377328 358.37926006 42.78851891 C362.59525885 34.51335043 364.95483526 26.4478803 366.44176006 17.25726891 C351.13215447 17.25726891 335.529948 27.05657298 325.09019756 37.48383141 Z M236.44176006 20.25726891 C234.96739827 21.74993612 234.96739827 21.74993612 233.50426006 23.63226891 C231.5218939 26.09628414 230.13476352 27.46193327 227.44176006 29.25726891 C232.43620868 46.18290035 243.63093025 61.56959284 259.29088116 70.28656578 C261.30306971 71.33844726 263.33026591 72.34161696 265.37926006 73.31976891 C266.03055889 73.63148033 266.68185772 73.94319176 267.35289288 74.26434898 C271.27587049 76.09551807 271.27587049 76.09551807 275.44176006 75.25726891 C277.12908284 73.27466465 278.79542064 71.2740347 280.44176006 69.25726891 C281.43176006 68.59726891 282.42176006 67.93726891 283.44176006 67.25726891 C278.53439198 50.62674373 268.09438814 36.70861879 253.44176006 27.25726891 C245.29982884 22.44673015 245.29982884 22.44673015 236.44176006 20.25726891 Z M167.44176006 35.25726891 C166.75855694 35.86055016 166.07535381 36.46383141 165.37144756 37.08539391 C157.32584731 44.61093635 150.85068227 54.74642543 147.44176006 65.25726891 C148.77991336 69.2717288 151.20489898 70.61493333 154.44176006 73.25726891 C155.10176006 74.24726891 155.76176006 75.23726891 156.44176006 76.25726891 C173.3673915 71.26282028 188.754084 60.06809872 197.47105694 44.40814781 C198.52293842 42.39595926 199.52610812 40.36876306 200.50426006 38.31976891 C200.81597149 37.66847008 201.12768291 37.01717125 201.44884014 36.34613609 C203.28000922 32.42315848 203.28000922 32.42315848 202.44176006 28.25726891 C200.45915581 26.56994613 198.45852586 24.90360833 196.44176006 23.25726891 C195.78176006 22.26726891 195.12176006 21.27726891 194.44176006 20.25726891 C185.71009595 20.25726891 173.60431698 29.66394415 167.44176006 35.25726891 Z M214.44176006 47.25726891 C213.39707043 48.94765593 212.43360783 50.68832436 211.50426006 52.44476891 C203.07718109 67.25334959 191.69403152 77.69999343 176.71519756 85.81195641 C175.96496319 86.28890953 175.21472881 86.76586266 174.44176006 87.25726891 C174.44176006 87.91726891 174.44176006 88.57726891 174.44176006 89.25726891 C176.13214709 90.30195854 177.87281551 91.26542114 179.62926006 92.19476891 C194.43784075 100.62184788 204.88448459 112.00499745 212.99644756 126.98383141 C213.47340069 127.73406578 213.95035381 128.48430016 214.44176006 129.25726891 C215.10176006 129.25726891 215.76176006 129.25726891 216.44176006 129.25726891 C217.4864497 127.56688188 218.4499123 125.82621346 219.37926006 124.06976891 C227.80633904 109.26118822 239.18948861 98.81454438 254.16832256 90.70258141 C254.91855694 90.22562828 255.66879131 89.74867516 256.44176006 89.25726891 C256.44176006 88.59726891 256.44176006 87.93726891 256.44176006 87.25726891 C254.75137304 86.21257927 253.01070461 85.24911667 251.25426006 84.31976891 C236.44567938 75.89268993 225.99903554 64.50954036 217.88707256 49.53070641 C217.41011944 48.78047203 216.93316631 48.03023766 216.44176006 47.25726891 C215.78176006 47.25726891 215.12176006 47.25726891 214.44176006 47.25726891 Z M63.44176006 60.25726891 C63.44176006 78.73726891 63.44176006 97.21726891 63.44176006 116.25726891 C66.41653329 113.28249568 68.94101932 110.70619335 71.50426006 107.50726891 C78.29799608 99.67745114 87.23266315 93.88507266 96.44176006 89.25726891 C96.44176006 88.59726891 96.44176006 87.93726891 96.44176006 87.25726891 C94.75137304 86.21257927 93.01070461 85.24911667 91.25426006 84.31976891 C81.169575 78.58604135 72.34742884 71.3566176 65.61363506 61.83930016 C65.22691631 61.31722984 64.84019756 60.79515953 64.44176006 60.25726891 C64.11176006 60.25726891 63.78176006 60.25726891 63.44176006 60.25726891 Z M366.44176006 60.25726891 C365.13107879 61.88800026 363.84413465 63.5378186 362.56676006 65.19476891 C355.29165112 74.14786506 346.83305527 80.39002891 336.68004131 85.84711266 C335.9414085 86.31246422 335.20277569 86.77781578 334.44176006 87.25726891 C334.44176006 87.91726891 334.44176006 88.57726891 334.44176006 89.25726891 C336.13214709 90.30195854 337.87281551 91.26542114 339.62926006 92.19476891 C349.71394512 97.92849646 358.53609128 105.15792021 365.26988506 114.67523766 C365.65660381 115.19730797 366.04332256 115.71937828 366.44176006 116.25726891 C366.77176006 116.25726891 367.10176006 116.25726891 367.44176006 116.25726891 C367.44176006 97.77726891 367.44176006 79.29726891 367.44176006 60.25726891 C367.11176006 60.25726891 366.78176006 60.25726891 366.44176006 60.25726891 Z M6.06676006 66.88226891 C3.96638736 69.95204439 3.90882172 71.60283452 4.44176006 75.25726891 C5.82102779 77.59988499 5.82102779 77.59988499 7.44176006 79.25726891 C6.44176006 81.25726891 5.44176006 83.25726891 4.44176006 85.25726891 C4.05243808 88.83903111 4.00579289 90.62008611 6.06676006 93.63226891 C9.13653555 95.7326416 10.78732568 95.79020725 14.44176006 95.25726891 C16.78437615 93.87800118 16.78437615 93.87800118 18.44176006 92.25726891 C20.44176006 93.25726891 22.44176006 94.25726891 24.44176006 95.25726891 C28.02352226 95.64659088 29.80457727 95.69323608 32.81676006 93.63226891 C34.91713276 90.56249342 34.97469841 88.91170329 34.44176006 85.25726891 C33.06249234 82.91465282 33.06249234 82.91465282 31.44176006 81.25726891 C32.44176006 79.25726891 33.44176006 77.25726891 34.44176006 75.25726891 C34.83108204 71.67550671 34.87772724 69.8944517 32.81676006 66.88226891 C29.74698458 64.78189621 28.09619445 64.72433056 24.44176006 65.25726891 C22.09914398 66.63653663 22.09914398 66.63653663 20.44176006 68.25726891 C18.44176006 67.25726891 16.44176006 66.25726891 14.44176006 65.25726891 C10.85999786 64.86794693 9.07894286 64.82130173 6.06676006 66.88226891 Z M398.06676006 66.88226891 C395.96638736 69.95204439 395.90882172 71.60283452 396.44176006 75.25726891 C397.82102779 77.59988499 397.82102779 77.59988499 399.44176006 79.25726891 C398.44176006 81.25726891 397.44176006 83.25726891 396.44176006 85.25726891 C396.05243808 88.83903111 396.00579289 90.62008611 398.06676006 93.63226891 C401.13653555 95.7326416 402.78732568 95.79020725 406.44176006 95.25726891 C408.78437615 93.87800118 408.78437615 93.87800118 410.44176006 92.25726891 C412.44176006 93.25726891 414.44176006 94.25726891 416.44176006 95.25726891 C420.02352226 95.64659088 421.80457727 95.69323608 424.81676006 93.63226891 C426.91713276 90.56249342 426.97469841 88.91170329 426.44176006 85.25726891 C425.06249234 82.91465282 425.06249234 82.91465282 423.44176006 81.25726891 C424.44176006 79.25726891 425.44176006 77.25726891 426.44176006 75.25726891 C426.83108204 71.67550671 426.87772724 69.8944517 424.81676006 66.88226891 C421.74698458 64.78189621 420.09619445 64.72433056 416.44176006 65.25726891 C414.09914398 66.63653663 414.09914398 66.63653663 412.44176006 68.25726891 C410.44176006 67.25726891 408.44176006 66.25726891 406.44176006 65.25726891 C402.85999786 64.86794693 401.07894286 64.82130173 398.06676006 66.88226891 Z M156.44176006 100.25726891 C154.96739827 101.74993612 154.96739827 101.74993612 153.50426006 103.63226891 C151.5218939 106.09628414 150.13476352 107.46193327 147.44176006 109.25726891 C152.43620868 126.18290035 163.63093025 141.56959284 179.29088116 150.28656578 C181.30306971 151.33844726 183.33026591 152.34161696 185.37926006 153.31976891 C186.03055889 153.63148033 186.68185772 153.94319176 187.35289288 154.26434898 C191.27587049 156.09551807 191.27587049 156.09551807 195.44176006 155.25726891 C197.12908284 153.27466465 198.79542064 151.2740347 200.44176006 149.25726891 C201.43176006 148.59726891 202.42176006 147.93726891 203.44176006 147.25726891 C198.53439198 130.62674373 188.09438814 116.70861879 173.44176006 107.25726891 C165.29982884 102.44673015 165.29982884 102.44673015 156.44176006 100.25726891 Z M316.44176006 100.25726891 C314.96739827 101.74993612 314.96739827 101.74993612 313.50426006 103.63226891 C311.5218939 106.09628414 310.13476352 107.46193327 307.44176006 109.25726891 C312.43620868 126.18290035 323.63093025 141.56959284 339.29088116 150.28656578 C341.30306971 151.33844726 343.33026591 152.34161696 345.37926006 153.31976891 C346.03055889 153.63148033 346.68185772 153.94319176 347.35289288 154.26434898 C351.27587049 156.09551807 351.27587049 156.09551807 355.44176006 155.25726891 C357.12908284 153.27466465 358.79542064 151.2740347 360.44176006 149.25726891 C361.43176006 148.59726891 362.42176006 147.93726891 363.44176006 147.25726891 C358.53439198 130.62674373 348.09438814 116.70861879 333.44176006 107.25726891 C325.29982884 102.44673015 325.29982884 102.44673015 316.44176006 100.25726891 Z M87.44176006 115.25726891 C86.75855694 115.86055016 86.07535381 116.46383141 85.37144756 117.08539391 C77.32584731 124.61093635 70.85068227 134.74642543 67.44176006 145.25726891 C68.77991336 149.2717288 71.20489898 150.61493333 74.44176006 153.25726891 C75.10176006 154.24726891 75.76176006 155.23726891 76.44176006 156.25726891 C93.3673915 151.26282028 108.754084 140.06809872 117.47105694 124.40814781 C118.52293842 122.39595926 119.52610812 120.36876306 120.50426006 118.31976891 C120.81597149 117.66847008 121.12768291 117.01717125 121.44884014 116.34613609 C123.28000922 112.42315848 123.28000922 112.42315848 122.44176006 108.25726891 C120.45915581 106.56994613 118.45852586 104.90360833 116.44176006 103.25726891 C115.78176006 102.26726891 115.12176006 101.27726891 114.44176006 100.25726891 C105.71009595 100.25726891 93.60431698 109.66394415 87.44176006 115.25726891 Z M247.44176006 115.25726891 C246.75855694 115.86055016 246.07535381 116.46383141 245.37144756 117.08539391 C237.32584731 124.61093635 230.85068227 134.74642543 227.44176006 145.25726891 C228.77991336 149.2717288 231.20489898 150.61493333 234.44176006 153.25726891 C235.10176006 154.24726891 235.76176006 155.23726891 236.44176006 156.25726891 C253.3673915 151.26282028 268.754084 140.06809872 277.47105694 124.40814781 C278.52293842 122.39595926 279.52610812 120.36876306 280.50426006 118.31976891 C280.81597149 117.66847008 281.12768291 117.01717125 281.44884014 116.34613609 C283.28000922 112.42315848 283.28000922 112.42315848 282.44176006 108.25726891 C280.45915581 106.56994613 278.45852586 104.90360833 276.44176006 103.25726891 C275.78176006 102.26726891 275.12176006 101.27726891 274.44176006 100.25726891 C265.71009595 100.25726891 253.60431698 109.66394415 247.44176006 115.25726891 Z M134.44176006 127.25726891 C133.39707043 128.94765593 132.43360783 130.68832436 131.50426006 132.44476891 C123.07718109 147.25334959 111.69403152 157.69999343 96.71519756 165.81195641 C95.96496319 166.28890953 95.21472881 166.76586266 94.44176006 167.25726891 C94.44176006 167.91726891 94.44176006 168.57726891 94.44176006 169.25726891 C96.13214709 170.30195854 97.87281551 171.26542114 99.62926006 172.19476891 C114.43784075 180.62184788 124.88448459 192.00499745 132.99644756 206.98383141 C133.47340069 207.73406578 133.95035381 208.48430016 134.44176006 209.25726891 C135.10176006 209.25726891 135.76176006 209.25726891 136.44176006 209.25726891 C137.4864497 207.56688188 138.4499123 205.82621346 139.37926006 204.06976891 C147.80633904 189.26118822 159.18948861 178.81454438 174.16832256 170.70258141 C174.91855694 170.22562828 175.66879131 169.74867516 176.44176006 169.25726891 C176.44176006 168.59726891 176.44176006 167.93726891 176.44176006 167.25726891 C174.75137304 166.21257927 173.01070461 165.24911667 171.25426006 164.31976891 C156.44567938 155.89268993 145.99903554 144.50954036 137.88707256 129.53070641 C137.41011944 128.78047203 136.93316631 128.03023766 136.44176006 127.25726891 C135.78176006 127.25726891 135.12176006 127.25726891 134.44176006 127.25726891 Z M294.44176006 127.25726891 C293.39707043 128.94765593 292.43360783 130.68832436 291.50426006 132.44476891 C283.07718109 147.25334959 271.69403152 157.69999343 256.71519756 165.81195641 C255.96496319 166.28890953 255.21472881 166.76586266 254.44176006 167.25726891 C254.44176006 167.91726891 254.44176006 168.57726891 254.44176006 169.25726891 C256.13214709 170.30195854 257.87281551 171.26542114 259.62926006 172.19476891 C274.43784075 180.62184788 284.88448459 192.00499745 292.99644756 206.98383141 C293.47340069 207.73406578 293.95035381 208.48430016 294.44176006 209.25726891 C295.10176006 209.25726891 295.76176006 209.25726891 296.44176006 209.25726891 C297.4864497 207.56688188 298.4499123 205.82621346 299.37926006 204.06976891 C307.80633904 189.26118822 319.18948861 178.81454438 334.16832256 170.70258141 C334.91855694 170.22562828 335.66879131 169.74867516 336.44176006 169.25726891 C336.44176006 168.59726891 336.44176006 167.93726891 336.44176006 167.25726891 C334.75137304 166.21257927 333.01070461 165.24911667 331.25426006 164.31976891 C316.44567938 155.89268993 305.99903554 144.50954036 297.88707256 129.53070641 C297.41011944 128.78047203 296.93316631 128.03023766 296.44176006 127.25726891 C295.78176006 127.25726891 295.12176006 127.25726891 294.44176006 127.25726891 Z M6.06676006 154.88226891 C3.96638736 157.95204439 3.90882172 159.60283452 4.44176006 163.25726891 C5.82102779 165.59988499 5.82102779 165.59988499 7.44176006 167.25726891 C6.44176006 169.25726891 5.44176006 171.25726891 4.44176006 173.25726891 C4.05243808 176.83903111 4.00579289 178.62008611 6.06676006 181.63226891 C9.13653555 183.7326416 10.78732568 183.79020725 14.44176006 183.25726891 C16.78437615 181.87800118 16.78437615 181.87800118 18.44176006 180.25726891 C20.44176006 181.25726891 22.44176006 182.25726891 24.44176006 183.25726891 C28.02352226 183.64659088 29.80457727 183.69323608 32.81676006 181.63226891 C34.91713276 178.56249342 34.97469841 176.91170329 34.44176006 173.25726891 C33.06249234 170.91465282 33.06249234 170.91465282 31.44176006 169.25726891 C32.44176006 167.25726891 33.44176006 165.25726891 34.44176006 163.25726891 C34.83108204 159.67550671 34.87772724 157.8944517 32.81676006 154.88226891 C29.74698458 152.78189621 28.09619445 152.72433056 24.44176006 153.25726891 C22.09914398 154.63653663 22.09914398 154.63653663 20.44176006 156.25726891 C18.44176006 155.25726891 16.44176006 154.25726891 14.44176006 153.25726891 C10.85999786 152.86794693 9.07894286 152.82130173 6.06676006 154.88226891 Z M398.06676006 154.88226891 C395.96638736 157.95204439 395.90882172 159.60283452 396.44176006 163.25726891 C397.82102779 165.59988499 397.82102779 165.59988499 399.44176006 167.25726891 C398.44176006 169.25726891 397.44176006 171.25726891 396.44176006 173.25726891 C396.05243808 176.83903111 396.00579289 178.62008611 398.06676006 181.63226891 C401.13653555 183.7326416 402.78732568 183.79020725 406.44176006 183.25726891 C408.78437615 181.87800118 408.78437615 181.87800118 410.44176006 180.25726891 C412.44176006 181.25726891 414.44176006 182.25726891 416.44176006 183.25726891 C420.02352226 183.64659088 421.80457727 183.69323608 424.81676006 181.63226891 C426.91713276 178.56249342 426.97469841 176.91170329 426.44176006 173.25726891 C425.06249234 170.91465282 425.06249234 170.91465282 423.44176006 169.25726891 C424.44176006 167.25726891 425.44176006 165.25726891 426.44176006 163.25726891 C426.83108204 159.67550671 426.87772724 157.8944517 424.81676006 154.88226891 C421.74698458 152.78189621 420.09619445 152.72433056 416.44176006 153.25726891 C414.09914398 154.63653663 414.09914398 154.63653663 412.44176006 156.25726891 C410.44176006 155.25726891 408.44176006 154.25726891 406.44176006 153.25726891 C402.85999786 152.86794693 401.07894286 152.82130173 398.06676006 154.88226891 Z M76.44176006 180.25726891 C74.96739827 181.74993612 74.96739827 181.74993612 73.50426006 183.63226891 C71.5218939 186.09628414 70.13476352 187.46193327 67.44176006 189.25726891 C72.43620868 206.18290035 83.63093025 221.56959284 99.29088116 230.28656578 C101.30306971 231.33844726 103.33026591 232.34161696 105.37926006 233.31976891 C106.03055889 233.63148033 106.68185772 233.94319176 107.35289288 234.26434898 C111.27587049 236.09551807 111.27587049 236.09551807 115.44176006 235.25726891 C117.12908284 233.27466465 118.79542064 231.2740347 120.44176006 229.25726891 C121.43176006 228.59726891 122.42176006 227.93726891 123.44176006 227.25726891 C118.53439198 210.62674373 108.09438814 196.70861879 93.44176006 187.25726891 C85.29982884 182.44673015 85.29982884 182.44673015 76.44176006 180.25726891 Z M236.44176006 180.25726891 C234.96739827 181.74993612 234.96739827 181.74993612 233.50426006 183.63226891 C231.5218939 186.09628414 230.13476352 187.46193327 227.44176006 189.25726891 C232.43620868 206.18290035 243.63093025 221.56959284 259.29088116 230.28656578 C261.30306971 231.33844726 263.33026591 232.34161696 265.37926006 233.31976891 C266.03055889 233.63148033 266.68185772 233.94319176 267.35289288 234.26434898 C271.27587049 236.09551807 271.27587049 236.09551807 275.44176006 235.25726891 C277.12908284 233.27466465 278.79542064 231.2740347 280.44176006 229.25726891 C281.43176006 228.59726891 282.42176006 227.93726891 283.44176006 227.25726891 C278.53439198 210.62674373 268.09438814 196.70861879 253.44176006 187.25726891 C245.29982884 182.44673015 245.29982884 182.44673015 236.44176006 180.25726891 Z M167.44176006 195.25726891 C166.75855694 195.86055016 166.07535381 196.46383141 165.37144756 197.08539391 C157.32584731 204.61093635 150.85068227 214.74642543 147.44176006 225.25726891 C148.77991336 229.2717288 151.20489898 230.61493333 154.44176006 233.25726891 C155.10176006 234.24726891 155.76176006 235.23726891 156.44176006 236.25726891 C173.3673915 231.26282028 188.754084 220.06809872 197.47105694 204.40814781 C198.52293842 202.39595926 199.52610812 200.36876306 200.50426006 198.31976891 C200.81597149 197.66847008 201.12768291 197.01717125 201.44884014 196.34613609 C203.28000922 192.42315848 203.28000922 192.42315848 202.44176006 188.25726891 C200.45915581 186.56994613 198.45852586 184.90360833 196.44176006 183.25726891 C195.78176006 182.26726891 195.12176006 181.27726891 194.44176006 180.25726891 C185.71009595 180.25726891 173.60431698 189.66394415 167.44176006 195.25726891 Z M327.44176006 195.25726891 C326.75855694 195.86055016 326.07535381 196.46383141 325.37144756 197.08539391 C317.32584731 204.61093635 310.85068227 214.74642543 307.44176006 225.25726891 C308.77991336 229.2717288 311.20489898 230.61493333 314.44176006 233.25726891 C315.10176006 234.24726891 315.76176006 235.23726891 316.44176006 236.25726891 C333.3673915 231.26282028 348.754084 220.06809872 357.47105694 204.40814781 C358.52293842 202.39595926 359.52610812 200.36876306 360.50426006 198.31976891 C360.81597149 197.66847008 361.12768291 197.01717125 361.44884014 196.34613609 C363.28000922 192.42315848 363.28000922 192.42315848 362.44176006 188.25726891 C360.45915581 186.56994613 358.45852586 184.90360833 356.44176006 183.25726891 C355.78176006 182.26726891 355.12176006 181.27726891 354.44176006 180.25726891 C345.71009595 180.25726891 333.60431698 189.66394415 327.44176006 195.25726891 Z M214.44176006 207.25726891 C213.39707043 208.94765593 212.43360783 210.68832436 211.50426006 212.44476891 C203.07718109 227.25334959 191.69403152 237.69999343 176.71519756 245.81195641 C175.96496319 246.28890953 175.21472881 246.76586266 174.44176006 247.25726891 C174.44176006 247.91726891 174.44176006 248.57726891 174.44176006 249.25726891 C176.13214709 250.30195854 177.87281551 251.26542114 179.62926006 252.19476891 C194.43784075 260.62184788 204.88448459 272.00499745 212.99644756 286.98383141 C213.47340069 287.73406578 213.95035381 288.48430016 214.44176006 289.25726891 C215.10176006 289.25726891 215.76176006 289.25726891 216.44176006 289.25726891 C217.4864497 287.56688188 218.4499123 285.82621346 219.37926006 284.06976891 C227.80633904 269.26118822 239.18948861 258.81454438 254.16832256 250.70258141 C254.91855694 250.22562828 255.66879131 249.74867516 256.44176006 249.25726891 C256.44176006 248.59726891 256.44176006 247.93726891 256.44176006 247.25726891 C254.75137304 246.21257927 253.01070461 245.24911667 251.25426006 244.31976891 C236.44567938 235.89268993 225.99903554 224.50954036 217.88707256 209.53070641 C217.41011944 208.78047203 216.93316631 208.03023766 216.44176006 207.25726891 C215.78176006 207.25726891 215.12176006 207.25726891 214.44176006 207.25726891 Z M63.44176006 220.25726891 C63.44176006 238.73726891 63.44176006 257.21726891 63.44176006 276.25726891 C66.41653329 273.28249568 68.94101932 270.70619335 71.50426006 267.50726891 C78.29799608 259.67745114 87.23266315 253.88507266 96.44176006 249.25726891 C96.44176006 248.59726891 96.44176006 247.93726891 96.44176006 247.25726891 C94.75137304 246.21257927 93.01070461 245.24911667 91.25426006 244.31976891 C81.169575 238.58604135 72.34742884 231.3566176 65.61363506 221.83930016 C65.22691631 221.31722984 64.84019756 220.79515953 64.44176006 220.25726891 C64.11176006 220.25726891 63.78176006 220.25726891 63.44176006 220.25726891 Z M366.44176006 220.25726891 C365.13107879 221.88800026 363.84413465 223.5378186 362.56676006 225.19476891 C355.29165112 234.14786506 346.83305527 240.39002891 336.68004131 245.84711266 C335.9414085 246.31246422 335.20277569 246.77781578 334.44176006 247.25726891 C334.44176006 247.91726891 334.44176006 248.57726891 334.44176006 249.25726891 C336.13214709 250.30195854 337.87281551 251.26542114 339.62926006 252.19476891 C349.71394512 257.92849646 358.53609128 265.15792021 365.26988506 274.67523766 C365.65660381 275.19730797 366.04332256 275.71937828 366.44176006 276.25726891 C366.77176006 276.25726891 367.10176006 276.25726891 367.44176006 276.25726891 C367.44176006 257.77726891 367.44176006 239.29726891 367.44176006 220.25726891 C367.11176006 220.25726891 366.78176006 220.25726891 366.44176006 220.25726891 Z M6.06676006 242.88226891 C3.96638736 245.95204439 3.90882172 247.60283452 4.44176006 251.25726891 C5.82102779 253.59988499 5.82102779 253.59988499 7.44176006 255.25726891 C6.44176006 257.25726891 5.44176006 259.25726891 4.44176006 261.25726891 C4.05243808 264.83903111 4.00579289 266.62008611 6.06676006 269.63226891 C9.13653555 271.7326416 10.78732568 271.79020725 14.44176006 271.25726891 C16.78437615 269.87800118 16.78437615 269.87800118 18.44176006 268.25726891 C20.44176006 269.25726891 22.44176006 270.25726891 24.44176006 271.25726891 C28.02352226 271.64659088 29.80457727 271.69323608 32.81676006 269.63226891 C34.91713276 266.56249342 34.97469841 264.91170329 34.44176006 261.25726891 C33.06249234 258.91465282 33.06249234 258.91465282 31.44176006 257.25726891 C32.44176006 255.25726891 33.44176006 253.25726891 34.44176006 251.25726891 C34.83108204 247.67550671 34.87772724 245.8944517 32.81676006 242.88226891 C29.74698458 240.78189621 28.09619445 240.72433056 24.44176006 241.25726891 C22.09914398 242.63653663 22.09914398 242.63653663 20.44176006 244.25726891 C18.44176006 243.25726891 16.44176006 242.25726891 14.44176006 241.25726891 C10.85999786 240.86794693 9.07894286 240.82130173 6.06676006 242.88226891 Z M398.06676006 242.88226891 C395.96638736 245.95204439 395.90882172 247.60283452 396.44176006 251.25726891 C397.82102779 253.59988499 397.82102779 253.59988499 399.44176006 255.25726891 C398.44176006 257.25726891 397.44176006 259.25726891 396.44176006 261.25726891 C396.05243808 264.83903111 396.00579289 266.62008611 398.06676006 269.63226891 C401.13653555 271.7326416 402.78732568 271.79020725 406.44176006 271.25726891 C408.78437615 269.87800118 408.78437615 269.87800118 410.44176006 268.25726891 C412.44176006 269.25726891 414.44176006 270.25726891 416.44176006 271.25726891 C420.02352226 271.64659088 421.80457727 271.69323608 424.81676006 269.63226891 C426.91713276 266.56249342 426.97469841 264.91170329 426.44176006 261.25726891 C425.06249234 258.91465282 425.06249234 258.91465282 423.44176006 257.25726891 C424.44176006 255.25726891 425.44176006 253.25726891 426.44176006 251.25726891 C426.83108204 247.67550671 426.87772724 245.8944517 424.81676006 242.88226891 C421.74698458 240.78189621 420.09619445 240.72433056 416.44176006 241.25726891 C414.09914398 242.63653663 414.09914398 242.63653663 412.44176006 244.25726891 C410.44176006 243.25726891 408.44176006 242.25726891 406.44176006 241.25726891 C402.85999786 240.86794693 401.07894286 240.82130173 398.06676006 242.88226891 Z M156.44176006 260.25726891 C154.96739827 261.74993612 154.96739827 261.74993612 153.50426006 263.63226891 C151.5218939 266.09628414 150.13476352 267.46193327 147.44176006 269.25726891 C152.43620868 286.18290035 163.63093025 301.56959284 179.29088116 310.28656578 C181.30306971 311.33844726 183.33026591 312.34161696 185.37926006 313.31976891 C186.03055889 313.63148033 186.68185772 313.94319176 187.35289288 314.26434898 C191.27587049 316.09551807 191.27587049 316.09551807 195.44176006 315.25726891 C197.12908284 313.27466465 198.79542064 311.2740347 200.44176006 309.25726891 C201.43176006 308.59726891 202.42176006 307.93726891 203.44176006 307.25726891 C198.53439198 290.62674373 188.09438814 276.70861879 173.44176006 267.25726891 C165.29982884 262.44673015 165.29982884 262.44673015 156.44176006 260.25726891 Z M316.44176006 260.25726891 C314.96739827 261.74993612 314.96739827 261.74993612 313.50426006 263.63226891 C311.5218939 266.09628414 310.13476352 267.46193327 307.44176006 269.25726891 C312.72446327 287.15976311 324.52525569 302.04264484 340.91051006 311.19476891 C349.18567854 315.41076769 357.25114867 317.7703441 366.44176006 319.25726891 C364.24273595 304.59710816 358.47133984 291.30755813 348.44176006 280.25726891 C347.83847881 279.57406578 347.23519756 278.89086266 346.61363506 278.18695641 C338.86082043 269.89837816 328.99029555 264.29436274 318.44176006 260.25726891 C317.78176006 260.25726891 317.12176006 260.25726891 316.44176006 260.25726891 Z M87.44176006 275.25726891 C86.75855694 275.86055016 86.07535381 276.46383141 85.37144756 277.08539391 C73.19659539 288.47327845 67.33280094 303.1567567 64.44176006 319.25726891 C79.10192081 317.05824479 92.39147084 311.28684869 103.44176006 301.25726891 C104.12496319 300.65398766 104.80816631 300.05070641 105.51207256 299.42914391 C113.55767281 291.90360146 120.03283786 281.76811238 123.44176006 271.25726891 C122.10360676 267.24280901 119.67862115 265.89960448 116.44176006 263.25726891 C115.78176006 262.26726891 115.12176006 261.27726891 114.44176006 260.25726891 C105.71009595 260.25726891 93.60431698 269.66394415 87.44176006 275.25726891 Z M247.44176006 275.25726891 C246.75855694 275.86055016 246.07535381 276.46383141 245.37144756 277.08539391 C237.32584731 284.61093635 230.85068227 294.74642543 227.44176006 305.25726891 C228.77991336 309.2717288 231.20489898 310.61493333 234.44176006 313.25726891 C235.10176006 314.24726891 235.76176006 315.23726891 236.44176006 316.25726891 C253.3673915 311.26282028 268.754084 300.06809872 277.47105694 284.40814781 C278.52293842 282.39595926 279.52610812 280.36876306 280.50426006 278.31976891 C280.81597149 277.66847008 281.12768291 277.01717125 281.44884014 276.34613609 C283.28000922 272.42315848 283.28000922 272.42315848 282.44176006 268.25726891 C280.45915581 266.56994613 278.45852586 264.90360833 276.44176006 263.25726891 C275.78176006 262.26726891 275.12176006 261.27726891 274.44176006 260.25726891 C265.71009595 260.25726891 253.60431698 269.66394415 247.44176006 275.25726891 Z M134.44176006 287.25726891 C133.03447705 289.50467561 131.72892822 291.75486398 130.44176006 294.06976891 C124.84395792 303.74536431 118.15963891 311.86124898 108.84019756 318.23383141 C108.37871319 318.57156578 107.91722881 318.90930016 107.44176006 319.25726891 C107.44176006 319.58726891 107.44176006 319.91726891 107.44176006 320.25726891 C125.92176006 320.25726891 144.40176006 320.25726891 163.44176006 320.25726891 C160.46698684 317.28249568 157.89068451 314.75800965 154.69176006 312.19476891 C146.8619423 305.40103289 141.06956382 296.46636582 136.44176006 287.25726891 C135.78176006 287.25726891 135.12176006 287.25726891 134.44176006 287.25726891 Z M294.44176006 287.25726891 C293.03447705 289.50467561 291.72892822 291.75486398 290.44176006 294.06976891 C284.84395792 303.74536431 278.15963891 311.86124898 268.84019756 318.23383141 C268.37871319 318.57156578 267.91722881 318.90930016 267.44176006 319.25726891 C267.44176006 319.58726891 267.44176006 319.91726891 267.44176006 320.25726891 C285.92176006 320.25726891 304.40176006 320.25726891 323.44176006 320.25726891 C320.46698684 317.28249568 317.89068451 314.75800965 314.69176006 312.19476891 C306.8619423 305.40103289 301.06956382 296.46636582 296.44176006 287.25726891 C295.78176006 287.25726891 295.12176006 287.25726891 294.44176006 287.25726891 Z " fill="#000000" transform="translate(40.55823993682861,87.74273109436035)"/>
</svg>
